<?xml version="1.0" encoding="utf-8"?>
<!-- Generator: Adobe Illustrator 26.3.1, SVG Export Plug-In . SVG Version: 6.00 Build 0)  -->
<svg version="1.1" id="Capa_1" xmlns="http://www.w3.org/2000/svg" xmlns:xlink="http://www.w3.org/1999/xlink" x="0px" y="0px"
	 viewBox="0 0 443.1 161.2" style="enable-background:new 0 0 443.1 161.2;" xml:space="preserve">
<style type="text/css">
	.st0{fill:#D78E30;}
	.st1{fill:#FFFFFF;}
	.st2{fill-rule:evenodd;clip-rule:evenodd;fill:#233276;}
	.st3{fill-rule:evenodd;clip-rule:evenodd;fill:#D78E30;}
	.st4{fill-rule:evenodd;clip-rule:evenodd;fill:#1B1918;}
	.st5{fill:#233276;}
	.st6{fill:#003A74;}
</style>
<g>
	<g>
		<path class="st1" d="M347.9,110.6c3.4,3.4,7.4,6,11.9,7.7c4.5,1.7,8.7,2.6,12.5,2.6c2.6,0,4.7-0.4,6.2-1.1
			c1.5-0.7,2.3-1.9,2.3-3.5c0-1.6-1-2.9-3.1-4c-2-1.1-4.7-2.1-7.8-3c-4.6-1.3-8.7-2.8-12.4-4.6c-3.6-1.7-6.7-3.8-9.3-6.1
			c-2.6-2.4-4.6-5.1-5.9-8.3c-1.4-3.2-2.1-6.9-2.1-11.1c0-6.5,1.4-12.1,4.3-17c2.8-4.9,6.6-8.9,11.3-12.1c4.7-3.2,10-5.5,15.9-7.1
			c5.9-1.6,11.8-2.4,17.7-2.4c8.2,0,16.1,1.2,23.7,3.5c7.6,2.3,13.8,5.6,18.5,9.8L408.7,80c-2.2-2.4-5.4-4.4-9.3-6
			c-4-1.6-7.9-2.5-11.7-2.5c-2.6,0-4.8,0.4-6.4,1.1c-1.6,0.7-2.5,1.9-2.5,3.5c0,1.3,0.7,2.3,2.1,3.1c1.4,0.7,3.8,1.6,7.2,2.5
			c4.9,1.2,9.3,2.7,13.4,4.5c4,1.8,7.5,3.9,10.4,6.4c2.9,2.5,5.2,5.5,6.7,8.9c1.6,3.4,2.4,7.5,2.4,12.1c0,7-1.6,12.9-4.7,17.8
			c-3.1,4.9-7.1,8.8-11.9,11.9c-4.8,3-10.2,5.2-16.1,6.5c-5.9,1.3-11.7,2-17.3,2c-7.5,0-15.4-1.1-23.8-3.2
			c-8.3-2.1-15.7-5.8-22-11.1L347.9,110.6z"/>
	</g>
	<path class="st1" d="M194.8,88.2c-2.2-2.6-4.7-4.6-7.5-6.2c-2.8-1.6-5.8-2.7-9-3.4v-0.4c8.2-2.2,15-6.4,20.3-12.4
		c5.3-6,8-13.9,8-23.5c0-5.7-1.2-10.5-3.7-14.4c-2.4-3.9-5.6-7.1-9.6-9.5c-4-2.4-8.4-4.2-13.3-5.3c-4.9-1.1-9.8-1.6-14.7-1.6h-64.2
		H88.5c0,0,10.9,9.2,9.5,17.9L76.4,151.8h65.2c8.7,0,16.8-0.9,24.2-2.8c7.4-1.8,13.8-4.6,19.1-8.2c5.4-3.6,9.5-8.2,12.5-13.6
		c3-5.4,4.5-11.7,4.5-18.8c0-4.1-0.6-7.8-1.9-11.3C198.7,93.7,197,90.7,194.8,88.2L194.8,88.2z M154.9,110.3L154.9,110.3
		c-1.1,1.5-2.5,2.7-4.3,3.6c-1.8,0.9-3.9,1.5-6.2,1.8c-2.4,0.3-4.8,0.5-7.3,0.5h-11.7l3.8-21.2h13.5c4.5,0,7.9,0.8,10.3,2.5
		c2.4,1.7,3.6,4,3.6,7C156.5,106.8,155.9,108.7,154.9,110.3L154.9,110.3z M160.4,61.1L160.4,61.1c-0.9,1.4-2.1,2.5-3.6,3.3
		c-1.5,0.8-3.1,1.3-4.9,1.6c-1.8,0.3-3.5,0.4-5.2,0.4h-12.7l3.2-19.4h11.5c3.8,0,7,0.7,9.4,2c2.4,1.3,3.7,3.5,3.7,6.6
		C161.8,57.8,161.4,59.7,160.4,61.1z"/>
	<path class="st1" d="M289.4,45.2h-12.7c0,0,10.5,9,9.5,17.6l-6.7,37.5c-0.9,5.1-2.5,9.1-4.9,11.8c-2.3,2.7-5,4.1-8,4.1
		c-3.2,0-5.5-0.8-6.9-2.5c-1.5-1.7-2.2-3.8-2.2-6.4c0-0.8,0-1.8,0.1-3.1c0.1-1.2,0.2-2.5,0.5-3.7l9.7-55.3h-43.6h-1h-12.7
		c0,0,11.3,9.1,9.5,18l0.1-0.4l-7.8,45c-0.4,2.1-0.7,4.3-0.9,6.6c-0.2,2.3-0.3,4.5-0.3,6.6c0,4,0.6,7.8,1.7,11.5
		c1.1,3.7,3,7,5.5,9.8c2.6,2.8,5.9,5.1,9.9,6.8c4,1.7,8.9,2.6,14.8,2.6c6.6,0,12.7-1.6,18.1-4.8c5.5-3.2,9.7-6.9,12.8-11.1h0.8
		l-1.5,15.8h34.2c6.4,0,9.1-6.7,9.8-10.7l16.5-95.9H289.4z"/>
	<g>
		<path class="st1" d="M73.5,33.2c0,12-9.7,21.7-21.7,21.7c-12,0-21.7-9.7-21.7-21.7c0-12,9.7-21.7,21.7-21.7
			C63.8,11.5,73.5,21.2,73.5,33.2z"/>
		<path class="st1" d="M27.8,58.7H15.5c0,0,10.2,4.4,9.3,17.1l-13.2,76c0,0,31.1,0,37.2,0c6.2,0,8.4-7.4,8.4-7.4L72,58.7H27.8z"/>
	</g>
</g>
</svg>
