<?xml version="1.0" encoding="utf-8"?>
<!-- Generator: Adobe Illustrator 26.3.1, SVG Export Plug-In . SVG Version: 6.00 Build 0)  -->
<svg version="1.1" id="Capa_1" xmlns="http://www.w3.org/2000/svg" xmlns:xlink="http://www.w3.org/1999/xlink" x="0px" y="0px"
	 viewBox="0 0 489.2 171.2" style="enable-background:new 0 0 489.2 171.2;" xml:space="preserve">
<style type="text/css">
	.st0{fill:#D78E30;}
	.st1{fill:#FFFFFF;}
	.st2{fill-rule:evenodd;clip-rule:evenodd;fill:#233276;}
	.st3{fill-rule:evenodd;clip-rule:evenodd;fill:#D78E30;}
	.st4{fill-rule:evenodd;clip-rule:evenodd;fill:#1B1918;}
	.st5{fill:#233276;}
	.st6{fill:#003A74;}
</style>
<g>
	<path class="st1" d="M9.8,51.1h17.4l43.4,76.8L114,51.1h17.4L72.1,156h-3L9.8,51.1z"/>
	<path class="st1" d="M157.3,8.1c3.8,0,7,1.2,9.7,3.5c2.7,2.3,4,5.2,4,8.5c0,3.2-1.3,6-4,8.4c-2.7,2.4-5.9,3.5-9.7,3.5
		c-3.7,0-6.9-1.2-9.6-3.5c-2.7-2.3-4-5.1-4-8.4c0-3.3,1.3-6.2,4-8.5C150.4,9.2,153.6,8.1,157.3,8.1z M149.1,51.1h16.5V156h-16.5
		V51.1z"/>
	<g>
		<path class="st1" d="M209.8,63.5c3.7-2.8,8.3-4.2,13.5-4.2c8.3,0,17,3.5,25.8,10.5l0.5,0.4l11.8-9.9l-0.7-0.5
			c-12.2-9.5-24.4-14.3-36.4-14.3c-10.4,0-19.1,2.7-25.8,8.1c-6.9,5.4-10.3,12.2-10.3,20.4c0,6.3,2.2,11.9,6.5,16.7
			c4.3,4.8,12.3,9.7,24,14.6c10.7,4.5,17.7,8.2,20.7,11.1c2.9,2.9,4.4,6.2,4.4,9.8c0,4.4-2.3,8.4-6.7,11.7
			c-4.5,3.4-10.1,5.1-16.5,5.1c-9.3,0-18.1-3.8-26.4-11.4l-0.5-0.4l-11.4,10.6l0.5,0.5c4.5,4.5,10.2,8.2,17,10.7
			c6.8,2.6,14,3.9,21.6,3.9c11.3,0,20.8-3.1,28.3-9.1c7.6-6.1,11.4-13.6,11.4-22.3c0-6.2-2.3-11.9-6.8-16.9
			c-4.5-4.8-13.1-9.9-25.5-15.2c-10-4.2-16.7-7.9-19.8-10.9c-3.1-3-4.5-6-4.5-9.2C204.3,69.4,206.1,66.3,209.8,63.5z"/>
		<polygon class="st1" points="363.3,47.6 267.9,47.6 267.9,59.6 308.3,59.6 308.3,156.7 322.9,156.7 322.9,59.6 363.3,59.6 		"/>
		<path class="st1" d="M412.9,47.9l-0.2-0.4h-4.2L345,156.7h16.2l20.5-35.3h56.9l20.3,35.3h16.1L412.9,47.9z M388.7,109.4l21.6-37.1
			l21.4,37.1H388.7z"/>
	</g>
</g>
</svg>
