<?xml version="1.0" encoding="utf-8"?>
<!-- Generator: Adobe Illustrator 26.3.1, SVG Export Plug-In . SVG Version: 6.00 Build 0)  -->
<svg version="1.1" id="Capa_1" xmlns="http://www.w3.org/2000/svg" xmlns:xlink="http://www.w3.org/1999/xlink" x="0px" y="0px"
	 viewBox="0 0 439.9 129.4" style="enable-background:new 0 0 439.9 129.4;" xml:space="preserve">
<style type="text/css">
	.st0{fill:#D78E30;}
	.st1{fill:#FFFFFF;}
	.st2{fill-rule:evenodd;clip-rule:evenodd;fill:#233276;}
	.st3{fill-rule:evenodd;clip-rule:evenodd;fill:#D78E30;}
	.st4{fill-rule:evenodd;clip-rule:evenodd;fill:#1B1918;}
	.st5{fill:#233276;}
	.st6{fill:#003A74;}
</style>
<g>
	<g>
		<path class="st1" d="M426,12.3l-50.3,54.9l28.2,54h-44.4l-13.9-31.5l-27.3,31.5h-39.6l45-59.3l-25.9-49.6h44.4l11.5,26.9
			l23.3-26.9H426z M426,12.3"/>
		<path class="st1" d="M143.2,28.3c7.9-7.1,15.1-12,21.6-14.6c6.5-2.6,13.4-3.9,20.7-3.9c9.9,0,17.3,2.6,22.2,7.8
			c4.9,5.3,7.4,11.6,7.4,19.1c0,4.4-0.5,8.8-1.3,12.9l-15.5,71.6h-42l10.1-46.5c2.5-11.8,3.9-18.9,4.2-21.2c0.3-2.2,0.4-3.8,0.4-4.7
			c0-5.7-2.7-8.5-8-8.5c-6.2,0-11.4,2.6-15.5,7.8c-4.1,5.2-7.3,13.4-9.7,24.6l-10.4,48.5h-42l9.8-45.7c2.6-12.2,4.1-19.5,4.4-21.8
			c0.3-2.2,0.5-4,0.5-5.1c0-5.5-2.8-8.3-8.4-8.3c-4.2,0-8.7,2.2-13.4,6.5c-4.7,4.3-8.2,11.7-10.4,22.1l-11.3,52.3H14.5L37.9,12.3
			h38.9l-3.4,15.6l0.4,0.4C85.8,16,99.2,9.8,114.1,9.8c6.9,0,12.9,1.6,18.2,4.8C137.6,17.9,141.2,22.4,143.2,28.3L143.2,28.3z
			 M143.2,28.3"/>
	</g>
	<g>
		<path class="st1" d="M283.6,18c1.1-4.7-1.9-8.5-6.5-8.5h-34.4c-4.7,0-9.4,3.8-10.5,8.5l-3,13c-1.1,4.7,1.9,8.5,6.5,8.5h34.4
			c4.7,0,9.4-3.8,10.5-8.5L283.6,18z"/>
		<path class="st1" d="M271.8,83.3c-1.8-10.3,1.6-20.8,2.6-25.5l1-4.5c1.1-4.7-1.9-8.5-6.5-8.5h-34.4c-4.7,0-9.4,3.8-10.5,8.5
			c0,0-17.4,68.4,35.7,68.4c34.6,0,57.7,0,57.7,0c3.7-3.7,8.1-9.4-5.1-9.9C312.4,111.6,276.4,109.1,271.8,83.3z"/>
	</g>
</g>
</svg>
