<?xml version="1.0" encoding="utf-8"?>
<!-- Generator: Adobe Illustrator 26.3.1, SVG Export Plug-In . SVG Version: 6.00 Build 0)  -->
<svg version="1.1" id="Capa_1" xmlns="http://www.w3.org/2000/svg" xmlns:xlink="http://www.w3.org/1999/xlink" x="0px" y="0px"
	 viewBox="0 0 673.7 74.3" style="enable-background:new 0 0 673.7 74.3;" xml:space="preserve">
<style type="text/css">
	.st0{fill:#D78E30;}
	.st1{fill:#FFFFFF;}
	.st2{fill-rule:evenodd;clip-rule:evenodd;fill:#233276;}
	.st3{fill-rule:evenodd;clip-rule:evenodd;fill:#D78E30;}
	.st4{fill-rule:evenodd;clip-rule:evenodd;fill:#1B1918;}
	.st5{fill:#233276;}
	.st6{fill:#003A74;}
</style>
<g>
	<g>
		<g>
			<path class="st1" d="M397.5,55.1c0,0-3.4,5.1-8.6,5.1h-13.8L406.2,13h41.4c14.5,0,23.9,1.3,28.3,3.8c4.1,2.4,4.3,6.3,0.8,11.7
				c-3.8,5.7-9.7,9.8-17.7,12.1c-7.2,2.1-17.6,3.1-30.9,3.1H405L397.5,55.1z M441.8,21.4h-22.1l-9.3,14.2h23c11.5,0,18.8-2.3,21.9-7
				c1.6-2.5,1.6-4.2-0.3-5.3C453.1,22,448.7,21.4,441.8,21.4"/>
		</g>
	</g>
	<g>
		<g>
			<path class="st1" d="M562.2,31.6c0,0,3.4-5.6,10.2-5.6h13.3l-19.9,29.7c0,0-2.7,4.4-9.8,4.4h-13.2L562.2,31.6z"/>
		</g>
	</g>
	<g>
		<g>
			<path class="st1" d="M574.9,15.8c0,0,3.4-5.6,10.2-5.6h13.4l-5,8c0,0-2.7,4.4-9.8,4.4h-13.2L574.9,15.8z"/>
		</g>
	</g>
	<g>
		<g>
			<path class="st1" d="M88.6,54.6c0,0-2.3,5.6-11.8,5.6H65.2l27-38.3l6.2-8.9h11.1h35.8c10.8,0,18,1.1,21.7,3.4
				c3.6,2.3,3.7,5.9,0.1,11c-2.4,3.4-5.9,6.2-10.6,8.6c-4.7,2.3-10.3,3.9-16.9,4.7l8.5,19.6h-21.4l-7.2-18.4H97.2L88.6,54.6z
				 M135,21.4h-23.4L103,33.7h23.4c6.4,0,11.2-0.4,14.3-1.3c3.1-0.9,5.5-2.5,7.1-4.9c1.4-2,1.7-3.3,0.9-4.1
				C147.3,22,142.7,21.4,135,21.4"/>
		</g>
	</g>
	<g>
		<g>
			<path class="st1" d="M251.5,53.9c0,0-3.4,6.3-11.5,6.3h-11.5l31.4-47h35.8c10.6,0,17.5,1.3,20.5,3.9c3,2.6,2.4,7-1.7,13.3
				l-15.2,22.7c0,0-4.5,7-12,7h-12.1l18.8-28.1c2.3-3.5,3.2-5.7,2.5-6.7c-0.8-1.1-3.9-1.7-9.4-1.7h-15.3L251.5,53.9z"/>
		</g>
	</g>
	<g>
		<g>
			<path class="st1" d="M349.2,60.2h-48.9l3.6-5.1c0,0,3-4.7,9.4-4.7h33.8c6.8,0,11.2-1.6,13.3-4.7c2.1-3-0.3-4.5-7.1-4.5h-16.5
				c-10.7,0-16.9-1.2-18.5-3.5c-1.4-2-0.7-5.2,2.3-9.5c6.7-10,18.4-15,35.4-15h19.5h8.4c13.9,0,6.3,9.8,6.3,9.8h-33.6
				c-4.8,0-8.4,0.3-10.7,0.9c-2.3,0.5-4.1,1.8-5.3,3.7c-1.7,2.6,0.4,3.8,6.5,3.8h17.4c7.2,0,12.2,0.9,14.9,2.7
				c3.5,2.2,3.6,5.7,0.4,10.6c-3,4.5-7.3,8.2-12.9,11.2C361.1,58.7,355.3,60.2,349.2,60.2"/>
		</g>
	</g>
	<g>
		<g>
			<path class="st1" d="M621,60.2h-48.8l3.5-5.1c0,0,3-4.7,9.4-4.7h33.8c6.8,0,11.2-1.6,13.3-4.7c2.1-3-0.3-4.5-7.1-4.5h-16.5
				c-10.7,0-16.9-1.2-18.5-3.5c-1.4-2-0.7-5.2,2.3-9.5c6.7-10,18.4-15,35.4-15h19.5h8.4c13.9,0,6.2,9.8,6.2,9.8h-33.6
				c-4.9,0-8.4,0.3-10.7,0.9c-2.3,0.5-4.1,1.8-5.3,3.7c-1.7,2.6,0.4,3.8,6.5,3.8h17.4c7.2,0,12.2,0.9,14.9,2.7
				c3.4,2.2,3.6,5.7,0.3,10.6c-3,4.5-7.3,8.2-12.9,11.2C632.9,58.7,627.1,60.2,621,60.2"/>
		</g>
	</g>
	<g>
		<g>
			<path class="st1" d="M38.9,49.4c0,0-5.8,10.8-18.5,10.8h-9l26.6-37.1H8.8c0,0,3.8-9.8,18.3-9.8h15.5h50.6c0,0-6.9,9.8-16,9.8h-10
				h-9.4L38.9,49.4z"/>
		</g>
	</g>
	<g>
		<g>
			<path class="st1" d="M222.8,13.2h-11.4h-16.8c-9.9,0-14.9,9.8-14.9,9.8h29.5c6.7,0,10.8,0.6,12.5,1.9c1.7,1.2,1.4,3.5-0.8,6.7
				h-25.2c-9.1,0-16.5,0.9-22.2,2.7c-7.2,2.3-12.7,6.3-16.5,12c-2.9,4.3-3.1,7.7-0.8,10.2c2.3,2.5,7,3.8,13.9,3.8h51.1l19.7-29.4
				C248.6,19.1,242.7,13.2,222.8,13.2 M208.1,50.8h-23.9c-3.6,0-6-0.3-7.1-0.9c-1.2-0.7-1.1-2,0.2-3.9c1.4-2.1,3.6-3.5,6.6-4.2
				c2-0.5,4.7-0.7,8.2-0.7h22.5L208.1,50.8z"/>
		</g>
	</g>
	<g>
		<g>
			<path class="st1" d="M533.5,13.2H522h-16.8c-9.9,0-14.9,9.8-14.9,9.8h29.5c6.7,0,10.9,0.6,12.5,1.9c1.7,1.2,1.4,3.5-0.8,6.7
				h-25.2c-9.1,0-16.6,0.9-22.2,2.7c-7.2,2.3-12.7,6.3-16.6,12c-2.9,4.3-3.1,7.7-0.8,10.2c2.4,2.5,7,3.8,13.9,3.8h51.1l19.7-29.4
				C559.2,19.1,553.3,13.2,533.5,13.2 M518.7,50.8h-23.9c-3.6,0-6-0.3-7.1-0.9c-1.2-0.7-1.1-2,0.3-3.9c1.3-2.1,3.6-3.5,6.6-4.2
				c1.9-0.5,4.7-0.7,8.2-0.7h22.5L518.7,50.8z"/>
		</g>
	</g>
</g>
</svg>
